<?xml version="1.0" encoding="UTF-8" standalone="no"?>
<!DOCTYPE svg PUBLIC "-//W3C//DTD SVG 1.1//EN"
 "http://www.w3.org/Graphics/SVG/1.1/DTD/svg11.dtd">
<!-- Generated by graphviz version 2.38.0 (20140413.2041)
 -->
<!-- Title: ER_Diagram Pages: 1 -->
<svg width="604pt" height="701pt"
 viewBox="0.00 0.00 603.68 700.74" xmlns="http://www.w3.org/2000/svg" xmlns:xlink="http://www.w3.org/1999/xlink">
<g id="graph0" class="graph" transform="scale(1 1) rotate(0) translate(269.208 396.929)">
<title>ER_Diagram</title>
<polygon fill="white" stroke="none" points="-269.208,303.81 -269.208,-396.929 334.468,-396.929 334.468,303.81 -269.208,303.81"/>
<!-- offering -->
<g id="node1" class="node"><title>offering</title>
<polygon fill="none" stroke="black" points="-46.2505,173.77 -108.251,173.77 -108.251,209.77 -46.2505,209.77 -46.2505,173.77"/>
<text text-anchor="middle" x="-77.2505" y="195.47" font-family="Times,serif" font-size="14.00">offering</text>
</g>
<!-- qtr -->
<g id="node2" class="node"><title>qtr</title>
<ellipse fill="none" stroke="black" cx="-157.607" cy="177.664" rx="27" ry="18"/>
<text text-anchor="middle" x="-157.607" y="181.364" font-family="Times,serif" font-size="14.00">qtr</text>
</g>
<!-- offering&#45;&#45;qtr -->
<g id="edge1" class="edge"><title>offering&#45;&#45;qtr</title>
<path fill="none" stroke="black" d="M-108.548,186.276C-116.128,184.946 -124.152,183.537 -131.465,182.253"/>
</g>
<!-- subject -->
<g id="node3" class="node"><title>subject</title>
<ellipse fill="none" stroke="black" cx="-0.181874" cy="234.733" rx="36.2938" ry="18"/>
<text text-anchor="middle" x="-0.181874" y="238.433" font-family="Times,serif" font-size="14.00">subject</text>
</g>
<!-- offering&#45;&#45;subject -->
<g id="edge2" class="edge"><title>offering&#45;&#45;subject</title>
<path fill="none" stroke="black" d="M-45.9038,209.245C-38.7359,213.241 -31.224,217.428 -24.4082,221.228"/>
</g>
<!-- num -->
<g id="node4" class="node"><title>num</title>
<ellipse fill="none" stroke="black" cx="-58.7725" cy="281.81" rx="27" ry="18"/>
<text text-anchor="middle" x="-58.7725" y="285.51" font-family="Times,serif" font-size="14.00">num</text>
</g>
<!-- offering&#45;&#45;num -->
<g id="edge3" class="edge"><title>offering&#45;&#45;num</title>
<path fill="none" stroke="black" d="M-73.5112,209.991C-70.2843,225.715 -65.65,248.297 -62.4432,263.924"/>
</g>
<!-- section -->
<g id="node5" class="node"><title>section</title>
<ellipse fill="none" stroke="black" cx="-109.695" cy="136.078" rx="36.2938" ry="18"/>
<text text-anchor="middle" x="-109.695" y="139.778" font-family="Times,serif" font-size="14.00">section</text>
</g>
<!-- offering&#45;&#45;section -->
<g id="edge4" class="edge"><title>offering&#45;&#45;section</title>
<path fill="none" stroke="black" d="M-87.8739,173.535C-91.6439,167.063 -95.8738,159.802 -99.5986,153.408"/>
</g>
<!-- discipline -->
<g id="node6" class="node"><title>discipline</title>
<ellipse fill="none" stroke="black" cx="-18.066" cy="197.438" rx="46.2923" ry="18"/>
<text text-anchor="middle" x="-18.066" y="201.138" font-family="Times,serif" font-size="14.00">discipline</text>
</g>
<!-- offering&#45;&#45;discipline -->
<g id="edge5" class="edge"><title>offering&#45;&#45;discipline</title>
<path fill="none" stroke="black" d="M-45.9252,194.77C-45.8143,194.781 -45.7034,194.791 -45.5926,194.802"/>
</g>
<!-- level -->
<g id="node7" class="node"><title>level</title>
<ellipse fill="none" stroke="black" cx="-149.373" cy="140.986" rx="28.6953" ry="18"/>
<text text-anchor="middle" x="-149.373" y="144.686" font-family="Times,serif" font-size="14.00">level</text>
</g>
<!-- offering&#45;&#45;level -->
<g id="edge6" class="edge"><title>offering&#45;&#45;level</title>
<path fill="none" stroke="black" d="M-102.881,173.723C-111.789,167.45 -121.625,160.524 -129.948,154.664"/>
</g>
<!-- enrollment -->
<g id="node8" class="node"><title>enrollment</title>
<ellipse fill="none" stroke="black" cx="-126.145" cy="248.245" rx="50.0912" ry="18"/>
<text text-anchor="middle" x="-126.145" y="251.945" font-family="Times,serif" font-size="14.00">enrollment</text>
</g>
<!-- offering&#45;&#45;enrollment -->
<g id="edge7" class="edge"><title>offering&#45;&#45;enrollment</title>
<path fill="none" stroke="black" d="M-92.9902,209.95C-98.7968,216.657 -105.357,224.235 -111.101,230.869"/>
</g>
<!-- classification -->
<g id="node9" class="node"><title>classification</title>
<ellipse fill="none" stroke="black" cx="-23.5098" cy="264.912" rx="58.4896" ry="18"/>
<text text-anchor="middle" x="-23.5098" y="268.612" font-family="Times,serif" font-size="14.00">classification</text>
</g>
<!-- offering&#45;&#45;classification -->
<g id="edge8" class="edge"><title>offering&#45;&#45;classification</title>
<path fill="none" stroke="black" d="M-63.9663,209.85C-55.5741,221.272 -44.7824,235.96 -36.4558,247.292"/>
</g>
<!-- a_ccu -->
<g id="node10" class="node"><title>a_ccu</title>
<ellipse fill="none" stroke="black" cx="-94.0315" cy="268.835" rx="31.6951" ry="18"/>
<text text-anchor="middle" x="-94.0315" y="272.535" font-family="Times,serif" font-size="14.00">a_ccu</text>
</g>
<!-- offering&#45;&#45;a_ccu -->
<g id="edge9" class="edge"><title>offering&#45;&#45;a_ccu</title>
<path fill="none" stroke="black" d="M-81.2274,210.034C-83.9218,222.407 -87.4651,238.679 -90.141,250.969"/>
</g>
<!-- has_group -->
<g id="node34" class="node"><title>has_group</title>
<polygon fill="none" stroke="black" points="-166.132,206.152 -235.005,224.152 -166.132,242.152 -97.2579,224.152 -166.132,206.152"/>
<text text-anchor="middle" x="-166.132" y="227.852" font-family="Times,serif" font-size="14.00">has_group</text>
</g>
<!-- offering&#45;&#45;has_group -->
<g id="edge28" class="edge"><title>offering&#45;&#45;has_group</title>
<path fill="none" stroke="black" d="M-108.337,203.096C-117.748,206.525 -128.04,210.274 -137.297,213.647"/>
</g>
<!-- consists_of -->
<g id="node35" class="node"><title>consists_of</title>
<polygon fill="none" stroke="black" points="-26.4445,88.6497 -100.01,106.65 -26.4445,124.65 47.1207,106.65 -26.4445,88.6497"/>
<text text-anchor="middle" x="-26.4445" y="110.35" font-family="Times,serif" font-size="14.00">consists_of</text>
</g>
<!-- offering&#45;&#45;consists_of -->
<g id="edge30" class="edge"><title>offering&#45;&#45;consists_of</title>
<path fill="none" stroke="black" d="M-66.4759,173.718C-57.3879,158.492 -44.5107,136.918 -35.8372,122.386"/>
</g>
<!-- offerfac -->
<g id="node11" class="node"><title>offerfac</title>
<polygon fill="none" stroke="black" points="60.564,-2.83859 -0.435988,-2.83859 -0.435988,33.1614 60.564,33.1614 60.564,-2.83859"/>
<text text-anchor="middle" x="30.064" y="18.8614" font-family="Times,serif" font-size="14.00">offerfac</text>
</g>
<!-- scu -->
<g id="node12" class="node"><title>scu</title>
<ellipse fill="none" stroke="black" cx="72.9157" cy="54.0664" rx="27" ry="18"/>
<text text-anchor="middle" x="72.9157" y="57.7664" font-family="Times,serif" font-size="14.00">scu</text>
</g>
<!-- offerfac&#45;&#45;scu -->
<g id="edge10" class="edge"><title>offerfac&#45;&#45;scu</title>
<path fill="none" stroke="black" d="M49.9845,33.2471C52.2575,35.3109 54.5533,37.3952 56.7688,39.4066"/>
</g>
<!-- fch -->
<g id="node13" class="node"><title>fch</title>
<ellipse fill="none" stroke="black" cx="20.1151" cy="53.8072" rx="27" ry="18"/>
<text text-anchor="middle" x="20.1151" y="57.5072" font-family="Times,serif" font-size="14.00">fch</text>
</g>
<!-- offerfac&#45;&#45;fch -->
<g id="edge11" class="edge"><title>offerfac&#45;&#45;fch</title>
<path fill="none" stroke="black" d="M25.3227,33.5789C25.1225,34.3565 24.9218,35.1361 24.7219,35.9126"/>
</g>
<!-- dwtu -->
<g id="node14" class="node"><title>dwtu</title>
<ellipse fill="none" stroke="black" cx="-26.5128" cy="-9.39155" rx="29.4969" ry="18"/>
<text text-anchor="middle" x="-26.5128" y="-5.69155" font-family="Times,serif" font-size="14.00">dwtu</text>
</g>
<!-- offerfac&#45;&#45;dwtu -->
<g id="edge12" class="edge"><title>offerfac&#45;&#45;dwtu</title>
<path fill="none" stroke="black" d="M-0.542618,1.87888C-1.1675,1.6077 -1.79085,1.33718 -2.41146,1.06785"/>
</g>
<!-- containing -->
<g id="node36" class="node"><title>containing</title>
<polygon fill="none" stroke="black" points="127.487,-3.20319 57.7753,14.7968 127.487,32.7968 197.2,14.7968 127.487,-3.20319"/>
<text text-anchor="middle" x="127.487" y="18.4968" font-family="Times,serif" font-size="14.00">containing</text>
</g>
<!-- offerfac&#45;&#45;containing -->
<g id="edge32" class="edge"><title>offerfac&#45;&#45;containing</title>
<path fill="none" stroke="black" d="M60.6221,15.0471C60.7337,15.0466 60.8455,15.0462 60.9574,15.0458"/>
</g>
<!-- sequence -->
<g id="node15" class="node"><title>sequence</title>
<polygon fill="none" stroke="black" points="256.014,-0.851016 188.014,-0.851016 188.014,35.149 256.014,35.149 256.014,-0.851016"/>
<text text-anchor="middle" x="222.014" y="20.849" font-family="Times,serif" font-size="14.00">sequence</text>
</g>
<!-- ttf -->
<g id="node16" class="node"><title>ttf</title>
<ellipse fill="none" stroke="black" cx="303.468" cy="34.2242" rx="27" ry="18"/>
<text text-anchor="middle" x="303.468" y="37.9242" font-family="Times,serif" font-size="14.00">ttf</text>
</g>
<!-- sequence&#45;&#45;ttf -->
<g id="edge13" class="edge"><title>sequence&#45;&#45;ttf</title>
<path fill="none" stroke="black" d="M256.086,24.2915C263.236,25.7903 270.666,27.348 277.465,28.7731"/>
</g>
<!-- days -->
<g id="node17" class="node"><title>days</title>
<ellipse fill="none" stroke="black" cx="300.46" cy="-9.68783" rx="27.0966" ry="18"/>
<text text-anchor="middle" x="300.46" y="-5.98783" font-family="Times,serif" font-size="14.00">days</text>
</g>
<!-- sequence&#45;&#45;days -->
<g id="edge14" class="edge"><title>sequence&#45;&#45;days</title>
<path fill="none" stroke="black" d="M256.193,5.45604C262.799,3.19605 269.6,0.869656 275.827,-1.26093"/>
</g>
<!-- start -->
<g id="node18" class="node"><title>start</title>
<ellipse fill="none" stroke="black" cx="278.532" cy="-47.0955" rx="27" ry="18"/>
<text text-anchor="middle" x="278.532" y="-43.3955" font-family="Times,serif" font-size="14.00">start</text>
</g>
<!-- sequence&#45;&#45;start -->
<g id="edge15" class="edge"><title>sequence&#45;&#45;start</title>
<path fill="none" stroke="black" d="M238.059,-1.08906C246.413,-10.5858 256.531,-22.0874 264.561,-31.2148"/>
</g>
<!-- end -->
<g id="node19" class="node"><title>end</title>
<ellipse fill="none" stroke="black" cx="255.353" cy="103.215" rx="27" ry="18"/>
<text text-anchor="middle" x="255.353" y="106.915" font-family="Times,serif" font-size="14.00">end</text>
</g>
<!-- sequence&#45;&#45;end -->
<g id="edge16" class="edge"><title>sequence&#45;&#45;end</title>
<path fill="none" stroke="black" d="M229.085,35.4014C234.819,50.2046 242.852,70.9423 248.521,85.5778"/>
</g>
<!-- tba -->
<g id="node20" class="node"><title>tba</title>
<ellipse fill="none" stroke="black" cx="287.722" cy="74.3115" rx="27" ry="18"/>
<text text-anchor="middle" x="287.722" y="78.0115" font-family="Times,serif" font-size="14.00">tba</text>
</g>
<!-- sequence&#45;&#45;tba -->
<g id="edge17" class="edge"><title>sequence&#45;&#45;tba</title>
<path fill="none" stroke="black" d="M242.805,35.2356C251.979,43.2165 262.61,52.4652 271.226,59.9608"/>
</g>
<!-- facility -->
<g id="node21" class="node"><title>facility</title>
<ellipse fill="none" stroke="black" cx="241.904" cy="-70.6272" rx="36.2938" ry="18"/>
<text text-anchor="middle" x="241.904" y="-66.9272" font-family="Times,serif" font-size="14.00">facility</text>
</g>
<!-- sequence&#45;&#45;facility -->
<g id="edge18" class="edge"><title>sequence&#45;&#45;facility</title>
<path fill="none" stroke="black" d="M226.135,-1.0383C229.549,-16.1029 234.376,-37.4051 237.788,-52.4632"/>
</g>
<!-- space -->
<g id="node22" class="node"><title>space</title>
<ellipse fill="none" stroke="black" cx="205.553" cy="-51.3785" rx="31.3957" ry="18"/>
<text text-anchor="middle" x="205.553" y="-47.6785" font-family="Times,serif" font-size="14.00">space</text>
</g>
<!-- sequence&#45;&#45;space -->
<g id="edge19" class="edge"><title>sequence&#45;&#45;space</title>
<path fill="none" stroke="black" d="M217.689,-0.855803C215.289,-10.8489 212.311,-23.2441 209.906,-33.256"/>
</g>
<!-- facltype -->
<g id="node23" class="node"><title>facltype</title>
<ellipse fill="none" stroke="black" cx="217.548" cy="86.5876" rx="40.0939" ry="18"/>
<text text-anchor="middle" x="217.548" y="90.2876" font-family="Times,serif" font-size="14.00">facltype</text>
</g>
<!-- sequence&#45;&#45;facltype -->
<g id="edge20" class="edge"><title>sequence&#45;&#45;facltype</title>
<path fill="none" stroke="black" d="M220.841,35.3932C220.189,45.5192 219.382,58.0792 218.729,68.2242"/>
</g>
<!-- instructor -->
<g id="node24" class="node"><title>instructor</title>
<polygon fill="none" stroke="black" points="-17.0954,-156.964 -87.0954,-156.964 -87.0954,-120.964 -17.0954,-120.964 -17.0954,-156.964"/>
<text text-anchor="middle" x="-52.0954" y="-135.264" font-family="Times,serif" font-size="14.00">instructor</text>
</g>
<!-- teaches -->
<g id="node37" class="node"><title>teaches</title>
<polygon fill="none" stroke="black" points="-7.36179,-85.8699 -60.4847,-67.8699 -7.36179,-49.8699 45.7611,-67.8699 -7.36179,-85.8699"/>
<text text-anchor="middle" x="-7.36179" y="-64.1699" font-family="Times,serif" font-size="14.00">teaches</text>
</g>
<!-- instructor&#45;&#45;teaches -->
<g id="edge34" class="edge"><title>instructor&#45;&#45;teaches</title>
<path fill="none" stroke="black" d="M-40.5754,-120.655C-33.2234,-108.971 -23.8085,-94.0081 -16.8812,-82.9988"/>
</g>
<!-- has_status -->
<g id="node38" class="node"><title>has_status</title>
<polygon fill="none" stroke="black" points="-91.9916,-229.428 -160.027,-211.428 -91.9916,-193.428 -23.9564,-211.428 -91.9916,-229.428"/>
<text text-anchor="middle" x="-91.9916" y="-207.728" font-family="Times,serif" font-size="14.00">has_status</text>
</g>
<!-- instructor&#45;&#45;has_status -->
<g id="edge36" class="edge"><title>instructor&#45;&#45;has_status</title>
<path fill="none" stroke="black" d="M-62.1629,-157.25C-68.6264,-168.989 -76.9414,-184.092 -83.1498,-195.369"/>
</g>
<!-- status -->
<g id="node25" class="node"><title>status</title>
<polygon fill="none" stroke="black" points="-102.764,-310.704 -156.764,-310.704 -156.764,-274.704 -102.764,-274.704 -102.764,-310.704"/>
<text text-anchor="middle" x="-129.764" y="-289.004" font-family="Times,serif" font-size="14.00">status</text>
</g>
<!-- iqtr -->
<g id="node26" class="node"><title>iqtr</title>
<ellipse fill="none" stroke="black" cx="-219.379" cy="-289.422" rx="27" ry="18"/>
<text text-anchor="middle" x="-219.379" y="-285.722" font-family="Times,serif" font-size="14.00">iqtr</text>
</g>
<!-- status&#45;&#45;iqtr -->
<g id="edge21" class="edge"><title>status&#45;&#45;iqtr</title>
<path fill="none" stroke="black" d="M-157.138,-291.701C-168.257,-291.294 -181.071,-290.825 -192.172,-290.418"/>
</g>
<!-- home_dept -->
<g id="node27" class="node"><title>home_dept</title>
<ellipse fill="none" stroke="black" cx="-195.817" cy="-251.109" rx="51.1914" ry="18"/>
<text text-anchor="middle" x="-195.817" y="-247.409" font-family="Times,serif" font-size="14.00">home_dept</text>
</g>
<!-- status&#45;&#45;home_dept -->
<g id="edge22" class="edge"><title>status&#45;&#45;home_dept</title>
<path fill="none" stroke="black" d="M-157.012,-275.545C-161.561,-272.681 -166.26,-269.721 -170.751,-266.893"/>
</g>
<!-- tsf -->
<g id="node28" class="node"><title>tsf</title>
<ellipse fill="none" stroke="black" cx="-161.031" cy="-367.523" rx="27" ry="18"/>
<text text-anchor="middle" x="-161.031" y="-363.823" font-family="Times,serif" font-size="14.00">tsf</text>
</g>
<!-- status&#45;&#45;tsf -->
<g id="edge23" class="edge"><title>status&#45;&#45;tsf</title>
<path fill="none" stroke="black" d="M-137.333,-310.815C-142.321,-322.752 -148.818,-338.298 -153.747,-350.093"/>
</g>
<!-- iaf -->
<g id="node29" class="node"><title>iaf</title>
<ellipse fill="none" stroke="black" cx="-110.221" cy="-374.929" rx="27" ry="18"/>
<text text-anchor="middle" x="-110.221" y="-371.229" font-family="Times,serif" font-size="14.00">iaf</text>
</g>
<!-- status&#45;&#45;iaf -->
<g id="edge24" class="edge"><title>status&#45;&#45;iaf</title>
<path fill="none" stroke="black" d="M-125.427,-310.952C-122.166,-324.673 -117.721,-343.375 -114.479,-357.015"/>
</g>
<!-- osf -->
<g id="node30" class="node"><title>osf</title>
<ellipse fill="none" stroke="black" cx="-201.373" cy="-335.212" rx="27" ry="18"/>
<text text-anchor="middle" x="-201.373" y="-331.512" font-family="Times,serif" font-size="14.00">osf</text>
</g>
<!-- status&#45;&#45;osf -->
<g id="edge25" class="edge"><title>status&#45;&#45;osf</title>
<path fill="none" stroke="black" d="M-156.836,-308.774C-164.916,-313.571 -173.627,-318.742 -181.185,-323.228"/>
</g>
<!-- admlevel -->
<g id="node31" class="node"><title>admlevel</title>
<ellipse fill="none" stroke="black" cx="-58.2369" cy="-312.582" rx="44.393" ry="18"/>
<text text-anchor="middle" x="-58.2369" y="-308.882" font-family="Times,serif" font-size="14.00">admlevel</text>
</g>
<!-- status&#45;&#45;admlevel -->
<g id="edge26" class="edge"><title>status&#45;&#45;admlevel</title>
<path fill="none" stroke="black" d="M-102.723,-300.219C-100.191,-300.923 -97.5967,-301.643 -94.9957,-302.366"/>
</g>
<!-- rank -->
<g id="node32" class="node"><title>rank</title>
<ellipse fill="none" stroke="black" cx="-63.9366" cy="-356.925" rx="27" ry="18"/>
<text text-anchor="middle" x="-63.9366" y="-353.225" font-family="Times,serif" font-size="14.00">rank</text>
</g>
<!-- status&#45;&#45;rank -->
<g id="edge27" class="edge"><title>status&#45;&#45;rank</title>
<path fill="none" stroke="black" d="M-111.077,-310.935C-101.042,-320.725 -88.8223,-332.646 -79.3391,-341.898"/>
</g>
<!-- group -->
<g id="node33" class="node"><title>group</title>
<polygon fill="none" stroke="black" points="-211.208,242.256 -265.208,242.256 -265.208,278.256 -211.208,278.256 -211.208,242.256"/>
<text text-anchor="middle" x="-238.208" y="263.956" font-family="Times,serif" font-size="14.00">group</text>
</g>
<!-- has_group&#45;&#45;group -->
<g id="edge29" class="edge"><title>has_group&#45;&#45;group</title>
<path fill="none" stroke="black" d="M-190.132,236.174C-196.848,239.538 -204.194,243.218 -211.078,246.666"/>
</g>
<!-- consists_of&#45;&#45;offerfac -->
<g id="edge31" class="edge"><title>consists_of&#45;&#45;offerfac</title>
<path fill="none" stroke="black" d="M-16.6015,90.7136C-6.73566,74.7407 8.43486,50.1794 18.7814,33.4281"/>
</g>
<!-- containing&#45;&#45;sequence -->
<g id="edge33" class="edge"><title>containing&#45;&#45;sequence</title>
<path fill="none" stroke="black" d="M191.324,16.3853C191.457,16.3886 191.589,16.3919 191.721,16.3952"/>
</g>
<!-- teaches&#45;&#45;offerfac -->
<g id="edge35" class="edge"><title>teaches&#45;&#45;offerfac</title>
<path fill="none" stroke="black" d="M-0.322286,-52.2524C5.98771,-38.2533 15.2462,-17.7129 21.8833,-2.98801"/>
</g>
<!-- has_status&#45;&#45;status -->
<g id="edge37" class="edge"><title>has_status&#45;&#45;status</title>
<path fill="none" stroke="black" d="M-99.4543,-227.486C-105.775,-241.087 -114.831,-260.572 -121.396,-274.699"/>
</g>
</g>
</svg>
