<?xml version="1.0" encoding="UTF-8" standalone="no"?>
<!DOCTYPE svg PUBLIC "-//W3C//DTD SVG 1.1//EN"
 "http://www.w3.org/Graphics/SVG/1.1/DTD/svg11.dtd">
<!-- Generated by graphviz version 2.40.1 (20161225.0304)
 -->
<!-- Title: ER_Diagram Pages: 1 -->
<svg width="889pt" height="1398pt"
 viewBox="0.00 0.00 889.00 1398.00" xmlns="http://www.w3.org/2000/svg" xmlns:xlink="http://www.w3.org/1999/xlink">
<g id="graph0" class="graph" transform="scale(1 1) rotate(0) translate(4 1394)">
<title>ER_Diagram</title>
<polygon fill="#ffffff" stroke="transparent" points="-4,4 -4,-1394 885,-1394 885,4 -4,4"/>
<!-- offering -->
<g id="node1" class="node">
<title>offering</title>
<polygon fill="none" stroke="#000000" points="606,-966 552,-966 552,-930 606,-930 606,-966"/>
<text text-anchor="middle" x="579" y="-944.3" font-family="Times,serif" font-size="14.00" fill="#000000">offering</text>
</g>
<!-- qtr -->
<g id="node2" class="node">
<title>qtr</title>
<ellipse fill="none" stroke="#000000" cx="675.0904" cy="-1090.1506" rx="27" ry="18"/>
<text text-anchor="middle" x="675.0904" y="-1086.4506" font-family="Times,serif" font-size="14.00" fill="#000000">qtr</text>
</g>
<!-- offering&#45;&#45;qtr -->
<g id="edge1" class="edge">
<title>offering&#45;&#45;qtr</title>
<path fill="none" stroke="#000000" d="M591.1699,-966.0035C609.9563,-993.795 645.7448,-1046.7384 663.912,-1073.6139"/>
</g>
<!-- subject -->
<g id="node3" class="node">
<title>subject</title>
<ellipse fill="none" stroke="#000000" cx="741.0551" cy="-1058.2947" rx="29.795" ry="18"/>
<text text-anchor="middle" x="741.0551" y="-1054.5947" font-family="Times,serif" font-size="14.00" fill="#000000">subject</text>
</g>
<!-- offering&#45;&#45;subject -->
<g id="edge2" class="edge">
<title>offering&#45;&#45;subject</title>
<path fill="none" stroke="#000000" d="M605.7601,-966.2129C638.1237,-988.2396 691.8638,-1024.8151 720.9196,-1044.5905"/>
</g>
<!-- num -->
<g id="node4" class="node">
<title>num</title>
<ellipse fill="none" stroke="#000000" cx="732.8256" cy="-972.541" rx="27" ry="18"/>
<text text-anchor="middle" x="732.8256" y="-968.841" font-family="Times,serif" font-size="14.00" fill="#000000">num</text>
</g>
<!-- offering&#45;&#45;num -->
<g id="edge3" class="edge">
<title>offering&#45;&#45;num</title>
<path fill="none" stroke="#000000" d="M606.1468,-952.3309C634.437,-956.8443 678.4694,-963.8691 706.464,-968.3353"/>
</g>
<!-- section -->
<g id="node5" class="node">
<title>section</title>
<ellipse fill="none" stroke="#000000" cx="544.6533" cy="-1107.2262" rx="29.795" ry="18"/>
<text text-anchor="middle" x="544.6533" y="-1103.5262" font-family="Times,serif" font-size="14.00" fill="#000000">section</text>
</g>
<!-- offering&#45;&#45;section -->
<g id="edge4" class="edge">
<title>offering&#45;&#45;section</title>
<path fill="none" stroke="#000000" d="M575.06,-966.2653C568.4346,-996.9795 555.1417,-1058.6034 548.5474,-1089.174"/>
</g>
<!-- discipline -->
<g id="node6" class="node">
<title>discipline</title>
<ellipse fill="none" stroke="#000000" cx="769.2393" cy="-904.5685" rx="37.0935" ry="18"/>
<text text-anchor="middle" x="769.2393" y="-900.8685" font-family="Times,serif" font-size="14.00" fill="#000000">discipline</text>
</g>
<!-- offering&#45;&#45;discipline -->
<g id="edge5" class="edge">
<title>offering&#45;&#45;discipline</title>
<path fill="none" stroke="#000000" d="M606.2567,-941.7773C640.3663,-933.9901 698.7695,-920.6567 735.6184,-912.2441"/>
</g>
<!-- level -->
<g id="node7" class="node">
<title>level</title>
<ellipse fill="none" stroke="#000000" cx="615.1909" cy="-1143.0304" rx="27" ry="18"/>
<text text-anchor="middle" x="615.1909" y="-1139.3304" font-family="Times,serif" font-size="14.00" fill="#000000">level</text>
</g>
<!-- offering&#45;&#45;level -->
<g id="edge6" class="edge">
<title>offering&#45;&#45;level</title>
<path fill="none" stroke="#000000" d="M582.4048,-966.348C589.3376,-1003.7088 605.0156,-1088.1965 611.8739,-1125.1556"/>
</g>
<!-- enrollment -->
<g id="node8" class="node">
<title>enrollment</title>
<ellipse fill="none" stroke="#000000" cx="539.7373" cy="-1170.6783" rx="40.0939" ry="18"/>
<text text-anchor="middle" x="539.7373" y="-1166.9783" font-family="Times,serif" font-size="14.00" fill="#000000">enrollment</text>
</g>
<!-- offering&#45;&#45;enrollment -->
<g id="edge7" class="edge">
<title>offering&#45;&#45;enrollment</title>
<path fill="none" stroke="#000000" d="M575.787,-966.2227C568.4062,-1008.0828 550.3101,-1110.7146 542.9396,-1152.5161"/>
</g>
<!-- classification -->
<g id="node9" class="node">
<title>classification</title>
<ellipse fill="none" stroke="#000000" cx="834.5679" cy="-1005.41" rx="46.2923" ry="18"/>
<text text-anchor="middle" x="834.5679" y="-1001.71" font-family="Times,serif" font-size="14.00" fill="#000000">classification</text>
</g>
<!-- offering&#45;&#45;classification -->
<g id="edge8" class="edge">
<title>offering&#45;&#45;classification</title>
<path fill="none" stroke="#000000" d="M606.3502,-954.1439C651.548,-964.297 742.0319,-984.623 794.4686,-996.4022"/>
</g>
<!-- a_ccu -->
<g id="node10" class="node">
<title>a_ccu</title>
<ellipse fill="none" stroke="#000000" cx="468.6946" cy="-1067.7586" rx="27" ry="18"/>
<text text-anchor="middle" x="468.6946" y="-1064.0586" font-family="Times,serif" font-size="14.00" fill="#000000">a_ccu</text>
</g>
<!-- offering&#45;&#45;a_ccu -->
<g id="edge9" class="edge">
<title>offering&#45;&#45;a_ccu</title>
<path fill="none" stroke="#000000" d="M562.247,-966.1887C540.6708,-989.614 503.5291,-1029.9387 483.1381,-1052.0772"/>
</g>
<!-- has_group -->
<g id="node40" class="node">
<title>has_group</title>
<polygon fill="none" stroke="#000000" points="733.8481,-1208.6776 678.5489,-1190.6776 733.8481,-1172.6776 789.1474,-1190.6776 733.8481,-1208.6776"/>
<text text-anchor="middle" x="733.8481" y="-1186.9776" font-family="Times,serif" font-size="14.00" fill="#000000">has_group</text>
</g>
<!-- offering&#45;&#45;has_group -->
<g id="edge33" class="edge">
<title>offering&#45;&#45;has_group</title>
<path fill="none" stroke="#000000" d="M590.6388,-966.2403C620.1093,-1012.4264 697.2539,-1133.3272 724.3068,-1175.7244"/>
</g>
<!-- consists_of -->
<g id="node41" class="node">
<title>consists_of</title>
<polygon fill="none" stroke="#000000" points="627.557,-786.3844 568.9043,-768.3844 627.557,-750.3844 686.2096,-768.3844 627.557,-786.3844"/>
<text text-anchor="middle" x="627.557" y="-764.6844" font-family="Times,serif" font-size="14.00" fill="#000000">consists_of</text>
</g>
<!-- offering&#45;&#45;consists_of -->
<g id="edge35" class="edge">
<title>offering&#45;&#45;consists_of</title>
<path fill="none" stroke="#000000" d="M583.9231,-929.789C593.3744,-894.8279 613.9308,-818.7886 623.0474,-785.0656"/>
</g>
<!-- offerfac -->
<g id="node11" class="node">
<title>offerfac</title>
<polygon fill="none" stroke="#000000" points="606,-606 552,-606 552,-570 606,-570 606,-606"/>
<text text-anchor="middle" x="579" y="-584.3" font-family="Times,serif" font-size="14.00" fill="#000000">offerfac</text>
</g>
<!-- scu -->
<g id="node12" class="node">
<title>scu</title>
<ellipse fill="none" stroke="#000000" cx="762.2912" cy="-559.3071" rx="27" ry="18"/>
<text text-anchor="middle" x="762.2912" y="-555.6071" font-family="Times,serif" font-size="14.00" fill="#000000">scu</text>
</g>
<!-- offerfac&#45;&#45;scu -->
<g id="edge10" class="edge">
<title>offerfac&#45;&#45;scu</title>
<path fill="none" stroke="#000000" d="M606.0453,-583.7663C640.8986,-578.3102 701.1147,-568.8839 735.7309,-563.4649"/>
</g>
<!-- fch -->
<g id="node13" class="node">
<title>fch</title>
<ellipse fill="none" stroke="#000000" cx="746.3062" cy="-633.5618" rx="27" ry="18"/>
<text text-anchor="middle" x="746.3062" y="-629.8618" font-family="Times,serif" font-size="14.00" fill="#000000">fch</text>
</g>
<!-- offerfac&#45;&#45;fch -->
<g id="edge11" class="edge">
<title>offerfac&#45;&#45;fch</title>
<path fill="none" stroke="#000000" d="M606.253,-595.4217C638.1054,-604.0959 690.3784,-618.3312 721.2531,-626.7392"/>
</g>
<!-- dwtu -->
<g id="node14" class="node">
<title>dwtu</title>
<ellipse fill="none" stroke="#000000" cx="720.6242" cy="-494.5547" rx="27" ry="18"/>
<text text-anchor="middle" x="720.6242" y="-490.8547" font-family="Times,serif" font-size="14.00" fill="#000000">dwtu</text>
</g>
<!-- offerfac&#45;&#45;dwtu -->
<g id="edge12" class="edge">
<title>offerfac&#45;&#45;dwtu</title>
<path fill="none" stroke="#000000" d="M606.3066,-569.9828C634.1179,-551.6326 676.5471,-523.6373 701.1363,-507.413"/>
</g>
<!-- containing -->
<g id="node42" class="node">
<title>containing</title>
<polygon fill="none" stroke="#000000" points="621.2586,-414.0114 565.1213,-396.0114 621.2586,-378.0114 677.3958,-396.0114 621.2586,-414.0114"/>
<text text-anchor="middle" x="621.2586" y="-392.3114" font-family="Times,serif" font-size="14.00" fill="#000000">containing</text>
</g>
<!-- offerfac&#45;&#45;containing -->
<g id="edge37" class="edge">
<title>offerfac&#45;&#45;containing</title>
<path fill="none" stroke="#000000" d="M582.9756,-569.9382C591.1119,-532.9733 609.5634,-449.1445 617.5067,-413.057"/>
</g>
<!-- sequence -->
<g id="node15" class="node">
<title>sequence</title>
<polygon fill="none" stroke="#000000" points="606.5,-246 551.5,-246 551.5,-210 606.5,-210 606.5,-246"/>
<text text-anchor="middle" x="579" y="-224.3" font-family="Times,serif" font-size="14.00" fill="#000000">sequence</text>
</g>
<!-- ttf -->
<g id="node16" class="node">
<title>ttf</title>
<ellipse fill="none" stroke="#000000" cx="689.5844" cy="-50.4166" rx="27" ry="18"/>
<text text-anchor="middle" x="689.5844" y="-46.7166" font-family="Times,serif" font-size="14.00" fill="#000000">ttf</text>
</g>
<!-- sequence&#45;&#45;ttf -->
<g id="edge13" class="edge">
<title>sequence&#45;&#45;ttf</title>
<path fill="none" stroke="#000000" d="M590.212,-209.9951C611.6817,-175.5177 658.3132,-100.6338 679.1548,-67.165"/>
</g>
<!-- days -->
<g id="node17" class="node">
<title>days</title>
<ellipse fill="none" stroke="#000000" cx="729.7112" cy="-99.6627" rx="27" ry="18"/>
<text text-anchor="middle" x="729.7112" y="-95.9627" font-family="Times,serif" font-size="14.00" fill="#000000">days</text>
</g>
<!-- sequence&#45;&#45;days -->
<g id="edge14" class="edge">
<title>sequence&#45;&#45;days</title>
<path fill="none" stroke="#000000" d="M600.2736,-209.8846C630.4576,-184.1815 685.1097,-137.6428 712.7407,-114.1138"/>
</g>
<!-- start -->
<g id="node18" class="node">
<title>start</title>
<ellipse fill="none" stroke="#000000" cx="758.4178" cy="-153.8846" rx="27" ry="18"/>
<text text-anchor="middle" x="758.4178" y="-150.1846" font-family="Times,serif" font-size="14.00" fill="#000000">start</text>
</g>
<!-- sequence&#45;&#45;start -->
<g id="edge15" class="edge">
<title>sequence&#45;&#45;start</title>
<path fill="none" stroke="#000000" d="M606.6408,-216.5819C641.9295,-202.0046 702.3512,-177.045 735.3114,-163.4296"/>
</g>
<!-- end -->
<g id="node19" class="node">
<title>end</title>
<ellipse fill="none" stroke="#000000" cx="611.147" cy="-18.4402" rx="27" ry="18"/>
<text text-anchor="middle" x="611.147" y="-14.7402" font-family="Times,serif" font-size="14.00" fill="#000000">end</text>
</g>
<!-- sequence&#45;&#45;end -->
<g id="edge16" class="edge">
<title>sequence&#45;&#45;end</title>
<path fill="none" stroke="#000000" d="M581.7966,-209.7695C587.8916,-170.0374 602.3115,-76.0365 608.3797,-36.4793"/>
</g>
<!-- tba -->
<g id="node20" class="node">
<title>tba</title>
<ellipse fill="none" stroke="#000000" cx="624.7803" cy="-78.7673" rx="27" ry="18"/>
<text text-anchor="middle" x="624.7803" y="-75.0673" font-family="Times,serif" font-size="14.00" fill="#000000">tba</text>
</g>
<!-- sequence&#45;&#45;tba -->
<g id="edge17" class="edge">
<title>sequence&#45;&#45;tba</title>
<path fill="none" stroke="#000000" d="M584.5222,-209.999C593.3214,-181.3158 610.4271,-125.5554 619.2385,-96.8321"/>
</g>
<!-- facility -->
<g id="node21" class="node">
<title>facility</title>
<ellipse fill="none" stroke="#000000" cx="764.5811" cy="-221.8677" rx="29.795" ry="18"/>
<text text-anchor="middle" x="764.5811" y="-218.1677" font-family="Times,serif" font-size="14.00" fill="#000000">facility</text>
</g>
<!-- sequence&#45;&#45;facility -->
<g id="edge18" class="edge">
<title>sequence&#45;&#45;facility</title>
<path fill="none" stroke="#000000" d="M606.7834,-227.0819C641.0614,-225.9492 699.1245,-224.0306 734.449,-222.8634"/>
</g>
<!-- space -->
<g id="node22" class="node">
<title>space</title>
<ellipse fill="none" stroke="#000000" cx="538.7242" cy="-37.6379" rx="27" ry="18"/>
<text text-anchor="middle" x="538.7242" y="-33.9379" font-family="Times,serif" font-size="14.00" fill="#000000">space</text>
</g>
<!-- sequence&#45;&#45;space -->
<g id="edge19" class="edge">
<title>sequence&#45;&#45;space</title>
<path fill="none" stroke="#000000" d="M575.1382,-209.7473C567.4202,-173.2682 550.1752,-91.7604 542.5156,-55.5574"/>
</g>
<!-- facltype -->
<g id="node23" class="node">
<title>facltype</title>
<ellipse fill="none" stroke="#000000" cx="473.6606" cy="-82.1165" rx="32.4942" ry="18"/>
<text text-anchor="middle" x="473.6606" y="-78.4165" font-family="Times,serif" font-size="14.00" fill="#000000">facltype</text>
</g>
<!-- sequence&#45;&#45;facltype -->
<g id="edge20" class="edge">
<title>sequence&#45;&#45;facltype</title>
<path fill="none" stroke="#000000" d="M565.8717,-209.8187C545.355,-181.4053 505.974,-126.867 485.9716,-99.1658"/>
</g>
<!-- instructor -->
<g id="node24" class="node">
<title>instructor</title>
<polygon fill="none" stroke="#000000" points="319.5,-606 262.5,-606 262.5,-570 319.5,-570 319.5,-606"/>
<text text-anchor="middle" x="291" y="-584.3" font-family="Times,serif" font-size="14.00" fill="#000000">instructor</text>
</g>
<!-- teaches -->
<g id="node43" class="node">
<title>teaches</title>
<polygon fill="none" stroke="#000000" points="422.8869,-563.7019 379.4852,-545.7019 422.8869,-527.7019 466.2887,-545.7019 422.8869,-563.7019"/>
<text text-anchor="middle" x="422.8869" y="-542.0019" font-family="Times,serif" font-size="14.00" fill="#000000">teaches</text>
</g>
<!-- instructor&#45;&#45;teaches -->
<g id="edge39" class="edge">
<title>instructor&#45;&#45;teaches</title>
<path fill="none" stroke="#000000" d="M319.6175,-578.8219C343.103,-571.2898 376.0068,-560.737 398.3144,-553.5827"/>
</g>
<!-- has_status -->
<g id="node44" class="node">
<title>has_status</title>
<polygon fill="none" stroke="#000000" points="202.508,-780.7275 147.2088,-762.7275 202.508,-744.7275 257.8073,-762.7275 202.508,-780.7275"/>
<text text-anchor="middle" x="202.508" y="-759.0275" font-family="Times,serif" font-size="14.00" fill="#000000">has_status</text>
</g>
<!-- instructor&#45;&#45;has_status -->
<g id="edge41" class="edge">
<title>instructor&#45;&#45;has_status</title>
<path fill="none" stroke="#000000" d="M281.8631,-606.0408C264.4644,-640.3947 226.851,-714.6623 210.4378,-747.0702"/>
</g>
<!-- gets -->
<g id="node45" class="node">
<title>gets</title>
<polygon fill="none" stroke="#000000" points="229.8207,-425.2706 199.6554,-407.2706 229.8207,-389.2706 259.986,-407.2706 229.8207,-425.2706"/>
<text text-anchor="middle" x="229.8207" y="-403.5706" font-family="Times,serif" font-size="14.00" fill="#000000">gets</text>
</g>
<!-- instructor&#45;&#45;gets -->
<g id="edge43" class="edge">
<title>instructor&#45;&#45;gets</title>
<path fill="none" stroke="#000000" d="M284.7971,-569.6761C272.6763,-533.87 246.0595,-455.2417 234.9011,-422.2787"/>
</g>
<!-- status -->
<g id="node25" class="node">
<title>status</title>
<polygon fill="none" stroke="#000000" points="318,-966 264,-966 264,-930 318,-930 318,-966"/>
<text text-anchor="middle" x="291" y="-944.3" font-family="Times,serif" font-size="14.00" fill="#000000">status</text>
</g>
<!-- iqtr -->
<g id="node26" class="node">
<title>iqtr</title>
<ellipse fill="none" stroke="#000000" cx="224.0058" cy="-1095.0625" rx="27" ry="18"/>
<text text-anchor="middle" x="224.0058" y="-1091.3625" font-family="Times,serif" font-size="14.00" fill="#000000">iqtr</text>
</g>
<!-- status&#45;&#45;iqtr -->
<g id="edge21" class="edge">
<title>status&#45;&#45;iqtr</title>
<path fill="none" stroke="#000000" d="M282.7852,-966.0327C269.7874,-994.5648 244.6478,-1049.7501 231.8714,-1077.7963"/>
</g>
<!-- home_dept -->
<g id="node27" class="node">
<title>home_dept</title>
<ellipse fill="none" stroke="#000000" cx="40.4834" cy="-1012.1373" rx="40.8928" ry="18"/>
<text text-anchor="middle" x="40.4834" y="-1008.4373" font-family="Times,serif" font-size="14.00" fill="#000000">home_dept</text>
</g>
<!-- status&#45;&#45;home_dept -->
<g id="edge22" class="edge">
<title>status&#45;&#45;home_dept</title>
<path fill="none" stroke="#000000" d="M263.7134,-954.9859C218.1875,-966.6415 126.7553,-990.05 76.1757,-1002.9994"/>
</g>
<!-- tsf -->
<g id="node28" class="node">
<title>tsf</title>
<ellipse fill="none" stroke="#000000" cx="133.1575" cy="-961.4991" rx="27" ry="18"/>
<text text-anchor="middle" x="133.1575" y="-957.7991" font-family="Times,serif" font-size="14.00" fill="#000000">tsf</text>
</g>
<!-- status&#45;&#45;tsf -->
<g id="edge23" class="edge">
<title>status&#45;&#45;tsf</title>
<path fill="none" stroke="#000000" d="M263.8659,-950.3206C234.8667,-952.8007 189.1656,-956.7091 160.2011,-959.1863"/>
</g>
<!-- iaf -->
<g id="node29" class="node">
<title>iaf</title>
<ellipse fill="none" stroke="#000000" cx="149.1871" cy="-1111.3372" rx="27" ry="18"/>
<text text-anchor="middle" x="149.1871" y="-1107.6372" font-family="Times,serif" font-size="14.00" fill="#000000">iaf</text>
</g>
<!-- status&#45;&#45;iaf -->
<g id="edge24" class="edge">
<title>status&#45;&#45;iaf</title>
<path fill="none" stroke="#000000" d="M275.2817,-966.104C247.3012,-998.3314 189.3151,-1065.1186 162.8692,-1095.5784"/>
</g>
<!-- osf -->
<g id="node30" class="node">
<title>osf</title>
<ellipse fill="none" stroke="#000000" cx="133.3913" cy="-1050.2571" rx="27" ry="18"/>
<text text-anchor="middle" x="133.3913" y="-1046.5571" font-family="Times,serif" font-size="14.00" fill="#000000">osf</text>
</g>
<!-- status&#45;&#45;osf -->
<g id="edge25" class="edge">
<title>status&#45;&#45;osf</title>
<path fill="none" stroke="#000000" d="M263.9061,-965.5786C232.3974,-986.0215 181.1421,-1019.2762 153.1593,-1037.4315"/>
</g>
<!-- admlevel -->
<g id="node31" class="node">
<title>admlevel</title>
<ellipse fill="none" stroke="#000000" cx="100.0135" cy="-896.7016" rx="35.9954" ry="18"/>
<text text-anchor="middle" x="100.0135" y="-893.0016" font-family="Times,serif" font-size="14.00" fill="#000000">admlevel</text>
</g>
<!-- status&#45;&#45;admlevel -->
<g id="edge26" class="edge">
<title>status&#45;&#45;admlevel</title>
<path fill="none" stroke="#000000" d="M263.6363,-940.6502C228.7738,-931.2862 168.6329,-915.1326 131.7822,-905.2346"/>
</g>
<!-- rank -->
<g id="node32" class="node">
<title>rank</title>
<ellipse fill="none" stroke="#000000" cx="286.6799" cy="-1144.6578" rx="27" ry="18"/>
<text text-anchor="middle" x="286.6799" y="-1140.9578" font-family="Times,serif" font-size="14.00" fill="#000000">rank</text>
</g>
<!-- status&#45;&#45;rank -->
<g id="edge27" class="edge">
<title>status&#45;&#45;rank</title>
<path fill="none" stroke="#000000" d="M290.6013,-966.1486C289.7783,-1003.6127 287.8998,-1089.1265 287.0776,-1126.5531"/>
</g>
<!-- assigned -->
<g id="node33" class="node">
<title>assigned</title>
<polygon fill="none" stroke="#000000" points="318,-246 264,-246 264,-210 318,-210 318,-246"/>
<text text-anchor="middle" x="291" y="-224.3" font-family="Times,serif" font-size="14.00" fill="#000000">assigned</text>
</g>
<!-- description -->
<g id="node34" class="node">
<title>description</title>
<ellipse fill="none" stroke="#000000" cx="144.6416" cy="-82.8654" rx="40.8928" ry="18"/>
<text text-anchor="middle" x="144.6416" y="-79.1654" font-family="Times,serif" font-size="14.00" fill="#000000">description</text>
</g>
<!-- assigned&#45;&#45;description -->
<g id="edge28" class="edge">
<title>assigned&#45;&#45;description</title>
<path fill="none" stroke="#000000" d="M272.7595,-209.912C244.1004,-181.4925 188.9487,-126.802 161.3005,-99.385"/>
</g>
<!-- a_scu -->
<g id="node35" class="node">
<title>a_scu</title>
<ellipse fill="none" stroke="#000000" cx="276.7703" cy="-52.5973" rx="27" ry="18"/>
<text text-anchor="middle" x="276.7703" y="-48.8973" font-family="Times,serif" font-size="14.00" fill="#000000">a_scu</text>
</g>
<!-- assigned&#45;&#45;a_scu -->
<g id="edge29" class="edge">
<title>assigned&#45;&#45;a_scu</title>
<path fill="none" stroke="#000000" d="M289.5308,-209.8895C286.7969,-176.1906 280.9594,-104.2334 278.2316,-70.6093"/>
</g>
<!-- contact_hours -->
<g id="node36" class="node">
<title>contact_hours</title>
<ellipse fill="none" stroke="#000000" cx="178.9093" cy="-22.2575" rx="48.9926" ry="18"/>
<text text-anchor="middle" x="178.9093" y="-18.5575" font-family="Times,serif" font-size="14.00" fill="#000000">contact_hours</text>
</g>
<!-- assigned&#45;&#45;contact_hours -->
<g id="edge30" class="edge">
<title>assigned&#45;&#45;contact_hours</title>
<path fill="none" stroke="#000000" d="M281.0527,-209.7417C259.728,-170.6002 209.835,-79.0217 188.6743,-40.1811"/>
</g>
<!-- direct_wtu -->
<g id="node37" class="node">
<title>direct_wtu</title>
<ellipse fill="none" stroke="#000000" cx="106.3614" cy="-140.7835" rx="39.7935" ry="18"/>
<text text-anchor="middle" x="106.3614" y="-137.0835" font-family="Times,serif" font-size="14.00" fill="#000000">direct_wtu</text>
</g>
<!-- assigned&#45;&#45;direct_wtu -->
<g id="edge31" class="edge">
<title>assigned&#45;&#45;direct_wtu</title>
<path fill="none" stroke="#000000" d="M263.7559,-215.1309C228.9473,-198.6886 169.0256,-170.3838 134.0193,-153.8481"/>
</g>
<!-- indirect_wtu -->
<g id="node38" class="node">
<title>indirect_wtu</title>
<ellipse fill="none" stroke="#000000" cx="84.6687" cy="-214.2252" rx="45.4919" ry="18"/>
<text text-anchor="middle" x="84.6687" y="-210.5252" font-family="Times,serif" font-size="14.00" fill="#000000">indirect_wtu</text>
</g>
<!-- assigned&#45;&#45;indirect_wtu -->
<g id="edge32" class="edge">
<title>assigned&#45;&#45;indirect_wtu</title>
<path fill="none" stroke="#000000" d="M263.6008,-226.1708C229.3989,-223.8875 170.4363,-219.9511 129.5906,-217.2242"/>
</g>
<!-- group -->
<g id="node39" class="node">
<title>group</title>
<polygon fill="none" stroke="#000000" points="874.5745,-1390.3737 820.5745,-1390.3737 820.5745,-1354.3737 874.5745,-1354.3737 874.5745,-1390.3737"/>
<text text-anchor="middle" x="847.5745" y="-1368.6737" font-family="Times,serif" font-size="14.00" fill="#000000">group</text>
</g>
<!-- has_group&#45;&#45;group -->
<g id="edge34" class="edge">
<title>has_group&#45;&#45;group</title>
<path fill="none" stroke="#000000" d="M743.3488,-1205.8564C764.1688,-1239.1198 813.7442,-1318.3244 836.1878,-1354.1817"/>
</g>
<!-- consists_of&#45;&#45;offerfac -->
<g id="edge36" class="edge">
<title>consists_of&#45;&#45;offerfac</title>
<path fill="none" stroke="#000000" d="M623.0759,-751.7376C613.9665,-717.8969 593.3516,-641.3148 583.9006,-606.2053"/>
</g>
<!-- containing&#45;&#45;sequence -->
<g id="edge38" class="edge">
<title>containing&#45;&#45;sequence</title>
<path fill="none" stroke="#000000" d="M617.0522,-379.2876C609.0773,-347.5812 591.8205,-278.9716 583.5714,-246.1748"/>
</g>
<!-- teaches&#45;&#45;offerfac -->
<g id="edge40" class="edge">
<title>teaches&#45;&#45;offerfac</title>
<path fill="none" stroke="#000000" d="M449.3694,-552.8772C477.9027,-560.6082 523.0781,-572.8482 551.8629,-580.6473"/>
</g>
<!-- has_status&#45;&#45;status -->
<g id="edge42" class="edge">
<title>has_status&#45;&#45;status</title>
<path fill="none" stroke="#000000" d="M210.0528,-778.5237C226.3953,-812.7393 264.9851,-893.5336 282.3122,-929.8106"/>
</g>
<!-- gets&#45;&#45;assigned -->
<g id="edge44" class="edge">
<title>gets&#45;&#45;assigned</title>
<path fill="none" stroke="#000000" d="M234.9316,-392.2945C246.103,-359.5593 272.6643,-281.7283 284.7814,-246.2221"/>
</g>
</g>
</svg>
